<?xml version="1.0" standalone="no"?>
<svg xmlns="http://www.w3.org/2000/svg" width="1024" height="1024" viewBox="0 0 1024 1024"><defs><clipPath id="clip-path-dot-color"><circle cx="77.5" cy="387.5" r="13.33" transform="rotate(0,75.33,385.33)"/><circle cx="77.5" cy="573.5" r="13.33" transform="rotate(0,75.33,571.33)"/><circle cx="77.5" cy="635.5" r="13.33" transform="rotate(0,75.33,633.33)"/><circle cx="77.5" cy="697.5" r="13.33" transform="rotate(0,75.33,695.33)"/><circle cx="108.5" cy="325.5" r="13.33" transform="rotate(0,106.33,323.33)"/><circle cx="108.5" cy="449.5" r="13.33" transform="rotate(0,106.33,447.33)"/><path d="M 94.08500000000001 623.255v 26.66h 15.5a 13.33 13.33, 0, 0, 0, 0 -26.66" transform="rotate(-90,108.5,636.585)"/><rect x="95.17" y="651" width="26.66" height="31" transform="rotate(0,106.33,666.5)"/><path d="M 94.08500000000001 683.085v 26.66h 15.5a 13.33 13.33, 0, 0, 0, 0 -26.66" transform="rotate(90,108.5,696.4150000000001)"/><path d="M 125.08500000000001 313.255v 26.66h 15.5a 13.33 13.33, 0, 0, 0, 0 -26.66" transform="rotate(-90,139.5,326.585)"/><path d="M 125.08500000000001 342.085v 26.66h 15.5a 13.33 13.33, 0, 0, 0, 0 -26.66" transform="rotate(90,139.5,355.41499999999996)"/><path d="M 125.08500000000001 406.255v 26.66h 15.5a 13.33 13.33, 0, 0, 0, 0 -26.66" transform="rotate(-90,139.5,419.585)"/><path d="M 125.08500000000001 435.085v 26.66h 15.5a 13.33 13.33, 0, 0, 0, 0 -26.66" transform="rotate(90,139.5,448.41499999999996)"/><circle cx="139.5" cy="511.5" r="13.33" transform="rotate(0,137.33,509.33)"/><circle cx="139.5" cy="573.5" r="13.33" transform="rotate(0,137.33,571.33)"/><circle cx="139.5" cy="697.5" r="13.33" transform="rotate(0,137.33,695.33)"/><circle cx="170.5" cy="387.5" r="13.33" transform="rotate(0,168.33,385.33)"/><circle cx="170.5" cy="511.5" r="13.33" transform="rotate(0,168.33,509.33)"/><circle cx="170.5" cy="604.5" r="13.33" transform="rotate(0,168.33,602.33)"/><circle cx="170.5" cy="666.5" r="13.33" transform="rotate(0,168.33,664.33)"/><path d="M 187.085 344.255v 26.66h 15.5a 13.33 13.33, 0, 0, 0, 0 -26.66" transform="rotate(-90,201.5,357.585)"/><path d="M 187.085 373.085v 26.66h 15.5a 13.33 13.33, 0, 0, 0, 0 -26.66" transform="rotate(90,201.5,386.41499999999996)"/><path d="M 187.085 437.255v 26.66h 15.5a 13.33 13.33, 0, 0, 0, 0 -26.66" transform="rotate(-90,201.5,450.585)"/><rect x="188.17" y="465" width="26.66" height="31" transform="rotate(0,199.33,480.5)"/><path d="M 187.085 497.085v 26.66h 15.5a 13.33 13.33, 0, 0, 0, 0 -26.66" transform="rotate(90,201.5,510.41499999999996)"/><path d="M 187.085 592.255v 26.66h 15.5a 13.33 13.33, 0, 0, 0, 0 -26.66" transform="rotate(-90,201.5,605.585)"/><rect x="188.17" y="620" width="26.66" height="31" transform="rotate(0,199.33,635.5)"/><path d="M 187.085 652.085v 26.66h 15.5a 13.33 13.33, 0, 0, 0, 0 -26.66" transform="rotate(90,201.5,665.4150000000001)"/><circle cx="232.5" cy="356.5" r="13.33" transform="rotate(0,230.33,354.33)"/><circle cx="232.5" cy="418.5" r="13.33" transform="rotate(0,230.33,416.33)"/><circle cx="232.5" cy="573.5" r="13.33" transform="rotate(0,230.33,571.33)"/><circle cx="232.5" cy="666.5" r="13.33" transform="rotate(0,230.33,664.33)"/><circle cx="263.5" cy="325.5" r="13.33" transform="rotate(0,261.33,323.33)"/><circle cx="263.5" cy="387.5" r="13.33" transform="rotate(0,261.33,385.33)"/><circle cx="263.5" cy="449.5" r="13.33" transform="rotate(0,261.33,447.33)"/><circle cx="263.5" cy="511.5" r="13.33" transform="rotate(0,261.33,509.33)"/><circle cx="263.5" cy="573.5" r="13.33" transform="rotate(0,261.33,571.33)"/><circle cx="263.5" cy="635.5" r="13.33" transform="rotate(0,261.33,633.33)"/><circle cx="263.5" cy="697.5" r="13.33" transform="rotate(0,261.33,695.33)"/><path d="M 280.085 344.255v 26.66h 15.5a 13.33 13.33, 0, 0, 0, 0 -26.66" transform="rotate(-90,294.5,357.585)"/><rect x="281.17" y="372" width="26.66" height="31" transform="rotate(0,292.33,387.5)"/><path d="M 280.085 404.085v 26.66h 15.5a 13.33 13.33, 0, 0, 0, 0 -26.66" transform="rotate(90,294.5,417.41499999999996)"/><path d="M 280.085 530.255v 26.66h 15.5a 13.33 13.33, 0, 0, 0, 0 -26.66" transform="rotate(-90,294.5,543.585)"/><rect x="281.17" y="558" width="26.66" height="31" transform="rotate(0,292.33,573.5)"/><rect x="281.17" y="589" width="26.66" height="31" transform="rotate(0,292.33,604.5)"/><rect x="281.17" y="620" width="26.66" height="31" transform="rotate(0,292.33,635.5)"/><rect x="281.17" y="651" width="26.66" height="31" transform="rotate(0,292.33,666.5)"/><path d="M 280.085 683.085v 26.66h 15.5a 13.33 13.33, 0, 0, 0, 0 -26.66" transform="rotate(90,294.5,696.4150000000001)"/><path d="M 311.085 96.255v 26.66h 15.5a 13.33 13.33, 0, 0, 0, 0 -26.66" transform="rotate(-90,325.5,109.585)"/><rect x="312.17" y="124" width="26.66" height="31" transform="rotate(0,323.33,139.5)"/><path d="M 311.085 156.085v 26.66h 15.5a 13.33 13.33, 0, 0, 0, 0 -26.66" transform="rotate(90,325.5,169.41500000000002)"/><path d="M 311.085 220.255v 26.66h 15.5a 13.33 13.33, 0, 0, 0, 0 -26.66" transform="rotate(-90,325.5,233.585)"/><path d="M 311.085 249.085v 26.66h 15.5a 13.33 13.33, 0, 0, 0, 0 -26.66" transform="rotate(90,325.5,262.415)"/><circle cx="325.5" cy="356.5" r="13.33" transform="rotate(0,323.33,354.33)"/><circle cx="325.5" cy="418.5" r="13.33" transform="rotate(0,323.33,416.33)"/><circle cx="325.5" cy="480.5" r="13.33" transform="rotate(0,323.33,478.33)"/><circle cx="325.5" cy="542.5" r="13.33" transform="rotate(0,323.33,540.33)"/><circle cx="325.5" cy="666.5" r="13.33" transform="rotate(0,323.33,664.33)"/><path d="M 311.085 871.255v 26.66h 15.5a 13.33 13.33, 0, 0, 0, 0 -26.66" transform="rotate(-90,325.5,884.585)"/><path d="M 311.085 900.085v 26.66h 15.5a 13.33 13.33, 0, 0, 0, 0 -26.66" transform="rotate(90,325.5,913.4150000000001)"/><path d="M 342.085 96.255v 26.66h 15.5a 13.33 13.33, 0, 0, 0, 0 -26.66" transform="rotate(-90,356.5,109.585)"/><path d="M 342.085 125.08500000000001v 26.66h 15.5a 13.33 13.33, 0, 0, 0, 0 -26.66" transform="rotate(90,356.5,138.41500000000002)"/><path d="M 342.085 189.255v 26.66h 15.5a 13.33 13.33, 0, 0, 0, 0 -26.66" transform="rotate(-90,356.5,202.585)"/><path d="M 342.085 218.085v 26.66h 15.5a 13.33 13.33, 0, 0, 0, 0 -26.66" transform="rotate(90,356.5,231.41500000000002)"/><circle cx="356.5" cy="294.5" r="13.33" transform="rotate(0,354.33,292.33)"/><path d="M 342.085 437.255v 26.66h 15.5a 13.33 13.33, 0, 0, 0, 0 -26.66" transform="rotate(-90,356.5,450.585)"/><path d="M 342.085 466.085v 26.66h 15.5a 13.33 13.33, 0, 0, 0, 0 -26.66" transform="rotate(90,356.5,479.41499999999996)"/><circle cx="356.5" cy="542.5" r="13.33" transform="rotate(0,354.33,540.33)"/><circle cx="356.5" cy="604.5" r="13.33" transform="rotate(0,354.33,602.33)"/><path d="M 342.085 716.255v 26.66h 15.5a 13.33 13.33, 0, 0, 0, 0 -26.66" transform="rotate(-90,356.5,729.585)"/><rect x="343.17" y="744" width="26.66" height="31" transform="rotate(0,354.33,759.5)"/><rect x="343.17" y="775" width="26.66" height="31" transform="rotate(0,354.33,790.5)"/><rect x="343.17" y="806" width="26.66" height="31" transform="rotate(0,354.33,821.5)"/><path d="M 342.085 838.085v 26.66h 15.5a 13.33 13.33, 0, 0, 0, 0 -26.66" transform="rotate(90,356.5,851.4150000000001)"/><circle cx="356.5" cy="945.5" r="13.33" transform="rotate(0,354.33,943.33)"/><circle cx="387.5" cy="77.5" r="13.33" transform="rotate(0,385.33,75.33)"/><circle cx="387.5" cy="139.5" r="13.33" transform="rotate(0,385.33,137.33)"/><circle cx="387.5" cy="201.5" r="13.33" transform="rotate(0,385.33,199.33)"/><circle cx="387.5" cy="263.5" r="13.33" transform="rotate(0,385.33,261.33)"/><circle cx="387.5" cy="356.5" r="13.33" transform="rotate(0,385.33,354.33)"/><circle cx="387.5" cy="697.5" r="13.33" transform="rotate(0,385.33,695.33)"/><path d="M 373.085 747.255v 26.66h 15.5a 13.33 13.33, 0, 0, 0, 0 -26.66" transform="rotate(-90,387.5,760.585)"/><path d="M 373.085 776.085v 26.66h 15.5a 13.33 13.33, 0, 0, 0, 0 -26.66" transform="rotate(90,387.5,789.4150000000001)"/><path d="M 373.085 840.255v 26.66h 15.5a 13.33 13.33, 0, 0, 0, 0 -26.66" transform="rotate(-90,387.5,853.585)"/><rect x="374.17" y="868" width="26.66" height="31" transform="rotate(0,385.33,883.5)"/><path d="M 373.085 900.085v 26.66h 15.5a 13.33 13.33, 0, 0, 0, 0 -26.66" transform="rotate(90,387.5,913.4150000000001)"/><circle cx="418.5" cy="77.5" r="13.33" transform="rotate(0,416.33,75.33)"/><path d="M 404.085 127.255v 26.66h 15.5a 13.33 13.33, 0, 0, 0, 0 -26.66" transform="rotate(-90,418.5,140.585)"/><path d="M 404.085 156.085v 26.66h 15.5a 13.33 13.33, 0, 0, 0, 0 -26.66" transform="rotate(90,418.5,169.41500000000002)"/><circle cx="418.5" cy="232.5" r="13.33" transform="rotate(0,416.33,230.33)"/><circle cx="418.5" cy="294.5" r="13.33" transform="rotate(0,416.33,292.33)"/><circle cx="418.5" cy="666.5" r="13.33" transform="rotate(0,416.33,664.33)"/><circle cx="418.5" cy="821.5" r="13.33" transform="rotate(0,416.33,819.33)"/><circle cx="418.5" cy="945.5" r="13.33" transform="rotate(0,416.33,943.33)"/><path d="M 435.085 158.255v 26.66h 15.5a 13.33 13.33, 0, 0, 0, 0 -26.66" transform="rotate(-90,449.5,171.585)"/><path d="M 435.085 187.085v 26.66h 15.5a 13.33 13.33, 0, 0, 0, 0 -26.66" transform="rotate(90,449.5,200.41500000000002)"/><path d="M 435.085 251.255v 26.66h 15.5a 13.33 13.33, 0, 0, 0, 0 -26.66" transform="rotate(-90,449.5,264.585)"/><path d="M 435.085 280.085v 26.66h 15.5a 13.33 13.33, 0, 0, 0, 0 -26.66" transform="rotate(90,449.5,293.41499999999996)"/><circle cx="449.5" cy="356.5" r="13.33" transform="rotate(0,447.33,354.33)"/><path d="M 435.085 654.255v 26.66h 15.5a 13.33 13.33, 0, 0, 0, 0 -26.66" transform="rotate(-90,449.5,667.585)"/><rect x="436.17" y="682" width="26.66" height="31" transform="rotate(0,447.33,697.5)"/><path d="M 435.085 714.085v 26.66h 15.5a 13.33 13.33, 0, 0, 0, 0 -26.66" transform="rotate(90,449.5,727.4150000000001)"/><circle cx="449.5" cy="790.5" r="13.33" transform="rotate(0,447.33,788.33)"/><path d="M 435.085 902.255v 26.66h 15.5a 13.33 13.33, 0, 0, 0, 0 -26.66" transform="rotate(-90,449.5,915.585)"/><path d="M 435.085 931.085v 26.66h 15.5a 13.33 13.33, 0, 0, 0, 0 -26.66" transform="rotate(90,449.5,944.4150000000001)"/><path d="M 466.085 96.255v 26.66h 15.5a 13.33 13.33, 0, 0, 0, 0 -26.66" transform="rotate(-90,480.5,109.585)"/><path d="M 466.085 125.08500000000001v 26.66h 15.5a 13.33 13.33, 0, 0, 0, 0 -26.66" transform="rotate(90,480.5,138.41500000000002)"/><circle cx="480.5" cy="325.5" r="13.33" transform="rotate(0,478.33,323.33)"/><circle cx="480.5" cy="666.5" r="13.33" transform="rotate(0,478.33,664.33)"/><path d="M 466.085 747.255v 26.66h 15.5a 13.33 13.33, 0, 0, 0, 0 -26.66" transform="rotate(-90,480.5,760.585)"/><path d="M 466.085 776.085v 26.66h 15.5a 13.33 13.33, 0, 0, 0, 0 -26.66" transform="rotate(90,480.5,789.4150000000001)"/><path d="M 466.085 840.255v 26.66h 15.5a 13.33 13.33, 0, 0, 0, 0 -26.66" transform="rotate(-90,480.5,853.585)"/><path d="M 466.085 869.085v 26.66h 15.5a 13.33 13.33, 0, 0, 0, 0 -26.66" transform="rotate(90,480.5,882.4150000000001)"/><circle cx="511.5" cy="77.5" r="13.33" transform="rotate(0,509.33,75.33)"/><circle cx="511.5" cy="201.5" r="13.33" transform="rotate(0,509.33,199.33)"/><circle cx="511.5" cy="263.5" r="13.33" transform="rotate(0,509.33,261.33)"/><path d="M 497.085 654.255v 26.66h 15.5a 13.33 13.33, 0, 0, 0, 0 -26.66" transform="rotate(-90,511.5,667.585)"/><path d="M 497.085 683.085v 26.66h 15.5a 13.33 13.33, 0, 0, 0, 0 -26.66" transform="rotate(90,511.5,696.4150000000001)"/><path d="M 497.085 747.255v 26.66h 15.5a 13.33 13.33, 0, 0, 0, 0 -26.66" transform="rotate(-90,511.5,760.585)"/><rect x="498.17" y="775" width="26.66" height="31" transform="rotate(0,509.33,790.5)"/><rect x="498.17" y="806" width="26.66" height="31" transform="rotate(0,509.33,821.5)"/><path d="M 497.085 838.085v 26.66h 15.5a 13.33 13.33, 0, 0, 0, 0 -26.66" transform="rotate(90,511.5,851.4150000000001)"/><path d="M 497.085 902.255v 26.66h 15.5a 13.33 13.33, 0, 0, 0, 0 -26.66" transform="rotate(-90,511.5,915.585)"/><path d="M 497.085 931.085v 26.66h 15.5a 13.33 13.33, 0, 0, 0, 0 -26.66" transform="rotate(90,511.5,944.4150000000001)"/><circle cx="542.5" cy="77.5" r="13.33" transform="rotate(0,540.33,75.33)"/><circle cx="542.5" cy="201.5" r="13.33" transform="rotate(0,540.33,199.33)"/><circle cx="542.5" cy="294.5" r="13.33" transform="rotate(0,540.33,292.33)"/><path d="M 528.085 716.255v 26.66h 15.5a 13.33 13.33, 0, 0, 0, 0 -26.66" transform="rotate(-90,542.5,729.585)"/><path d="M 528.085 745.085v 26.66h 15.5a 13.33 13.33, 0, 0, 0, 0 -26.66" transform="rotate(90,542.5,758.4150000000001)"/><path d="M 528.085 809.255v 26.66h 15.5a 13.33 13.33, 0, 0, 0, 0 -26.66" transform="rotate(-90,542.5,822.585)"/><path d="M 528.085 838.085v 26.66h 15.5a 13.33 13.33, 0, 0, 0, 0 -26.66" transform="rotate(90,542.5,851.4150000000001)"/><path d="M 559.085 96.255v 26.66h 15.5a 13.33 13.33, 0, 0, 0, 0 -26.66" transform="rotate(-90,573.5,109.585)"/><rect x="560.17" y="124" width="26.66" height="31" transform="rotate(0,571.33,139.5)"/><rect x="560.17" y="155" width="26.66" height="31" transform="rotate(0,571.33,170.5)"/><path d="M 559.085 187.085v 26.66h 15.5a 13.33 13.33, 0, 0, 0, 0 -26.66" transform="rotate(90,573.5,200.41500000000002)"/><circle cx="573.5" cy="263.5" r="13.33" transform="rotate(0,571.33,261.33)"/><circle cx="573.5" cy="728.5" r="13.33" transform="rotate(0,571.33,726.33)"/><circle cx="573.5" cy="790.5" r="13.33" transform="rotate(0,571.33,788.33)"/><circle cx="573.5" cy="852.5" r="13.33" transform="rotate(0,571.33,850.33)"/><circle cx="573.5" cy="945.5" r="13.33" transform="rotate(0,571.33,943.33)"/><path d="M 590.085 158.255v 26.66h 15.5a 13.33 13.33, 0, 0, 0, 0 -26.66" transform="rotate(-90,604.5,171.585)"/><path d="M 590.085 187.085v 26.66h 15.5a 13.33 13.33, 0, 0, 0, 0 -26.66" transform="rotate(90,604.5,200.41500000000002)"/><path d="M 590.085 282.255v 26.66h 15.5a 13.33 13.33, 0, 0, 0, 0 -26.66" transform="rotate(-90,604.5,295.585)"/><path d="M 590.085 311.085v 26.66h 15.5a 13.33 13.33, 0, 0, 0, 0 -26.66" transform="rotate(90,604.5,324.41499999999996)"/><circle cx="604.5" cy="697.5" r="13.33" transform="rotate(0,602.33,695.33)"/><circle cx="604.5" cy="790.5" r="13.33" transform="rotate(0,602.33,788.33)"/><circle cx="604.5" cy="883.5" r="13.33" transform="rotate(0,602.33,881.33)"/><circle cx="635.5" cy="77.5" r="13.33" transform="rotate(0,633.33,75.33)"/><path d="M 621.085 127.255v 26.66h 15.5a 13.33 13.33, 0, 0, 0, 0 -26.66" transform="rotate(-90,635.5,140.585)"/><path d="M 621.085 156.085v 26.66h 15.5a 13.33 13.33, 0, 0, 0, 0 -26.66" transform="rotate(90,635.5,169.41500000000002)"/><path d="M 621.085 251.255v 26.66h 15.5a 13.33 13.33, 0, 0, 0, 0 -26.66" transform="rotate(-90,635.5,264.585)"/><path d="M 621.085 280.085v 26.66h 15.5a 13.33 13.33, 0, 0, 0, 0 -26.66" transform="rotate(90,635.5,293.41499999999996)"/><circle cx="635.5" cy="356.5" r="13.33" transform="rotate(0,633.33,354.33)"/><circle cx="635.5" cy="759.5" r="13.33" transform="rotate(0,633.33,757.33)"/><circle cx="635.5" cy="852.5" r="13.33" transform="rotate(0,633.33,850.33)"/><path d="M 652.085 282.255v 26.66h 15.5a 13.33 13.33, 0, 0, 0, 0 -26.66" transform="rotate(-90,666.5,295.585)"/><rect x="653.17" y="310" width="26.66" height="31" transform="rotate(0,664.33,325.5)"/><path d="M 652.085 342.085v 26.66h 15.5a 13.33 13.33, 0, 0, 0, 0 -26.66" transform="rotate(90,666.5,355.41499999999996)"/><circle cx="666.5" cy="418.5" r="13.33" transform="rotate(0,664.33,416.33)"/><circle cx="666.5" cy="480.5" r="13.33" transform="rotate(0,664.33,478.33)"/><circle cx="666.5" cy="604.5" r="13.33" transform="rotate(0,664.33,602.33)"/><path d="M 652.085 685.255v 26.66h 15.5a 13.33 13.33, 0, 0, 0, 0 -26.66" transform="rotate(-90,666.5,698.585)"/><rect x="653.17" y="713" width="26.66" height="31" transform="rotate(0,664.33,728.5)"/><path d="M 652.085 745.085v 26.66h 15.5a 13.33 13.33, 0, 0, 0, 0 -26.66" transform="rotate(90,666.5,758.4150000000001)"/><path d="M 652.085 840.255v 26.66h 15.5a 13.33 13.33, 0, 0, 0, 0 -26.66" transform="rotate(-90,666.5,853.585)"/><path d="M 652.085 869.085v 26.66h 15.5a 13.33 13.33, 0, 0, 0, 0 -26.66" transform="rotate(90,666.5,882.4150000000001)"/><circle cx="666.5" cy="945.5" r="13.33" transform="rotate(0,664.33,943.33)"/><circle cx="697.5" cy="108.5" r="13.33" transform="rotate(0,695.33,106.33)"/><circle cx="697.5" cy="263.5" r="13.33" transform="rotate(0,695.33,261.33)"/><path d="M 683.085 375.255v 26.66h 15.5a 13.33 13.33, 0, 0, 0, 0 -26.66" transform="rotate(-90,697.5,388.585)"/><path d="M 683.085 404.085v 26.66h 15.5a 13.33 13.33, 0, 0, 0, 0 -26.66" transform="rotate(90,697.5,417.41499999999996)"/><path d="M 683.085 468.255v 26.66h 15.5a 13.33 13.33, 0, 0, 0, 0 -26.66" transform="rotate(-90,697.5,481.585)"/><path d="M 683.085 497.085v 26.66h 15.5a 13.33 13.33, 0, 0, 0, 0 -26.66" transform="rotate(90,697.5,510.41499999999996)"/><path d="M 683.085 561.255v 26.66h 15.5a 13.33 13.33, 0, 0, 0, 0 -26.66" transform="rotate(-90,697.5,574.585)"/><rect x="684.17" y="589" width="26.66" height="31" transform="rotate(0,695.33,604.5)"/><path d="M 683.085 621.085v 26.66h 15.5a 13.33 13.33, 0, 0, 0, 0 -26.66" transform="rotate(90,697.5,634.4150000000001)"/><path d="M 683.085 685.255v 26.66h 15.5a 13.33 13.33, 0, 0, 0, 0 -26.66" transform="rotate(-90,697.5,698.585)"/><rect x="684.17" y="713" width="26.66" height="31" transform="rotate(0,695.33,728.5)"/><rect x="684.17" y="744" width="26.66" height="31" transform="rotate(0,695.33,759.5)"/><rect x="684.17" y="775" width="26.66" height="31" transform="rotate(0,695.33,790.5)"/><path d="M 683.085 807.085v 26.66h 15.5a 13.33 13.33, 0, 0, 0, 0 -26.66" transform="rotate(90,697.5,820.4150000000001)"/><circle cx="728.5" cy="325.5" r="13.33" transform="rotate(0,726.33,323.33)"/><circle cx="728.5" cy="418.5" r="13.33" transform="rotate(0,726.33,416.33)"/><path d="M 714.085 468.255v 26.66h 15.5a 13.33 13.33, 0, 0, 0, 0 -26.66" transform="rotate(-90,728.5,481.585)"/><path d="M 714.085 497.085v 26.66h 15.5a 13.33 13.33, 0, 0, 0, 0 -26.66" transform="rotate(90,728.5,510.41499999999996)"/><path d="M 714.085 623.255v 26.66h 15.5a 13.33 13.33, 0, 0, 0, 0 -26.66" transform="rotate(-90,728.5,636.585)"/><rect x="715.17" y="651" width="26.66" height="31" transform="rotate(0,726.33,666.5)"/><path d="M 714.085 683.085v 26.66h 15.5a 13.33 13.33, 0, 0, 0, 0 -26.66" transform="rotate(90,728.5,696.4150000000001)"/><path d="M 714.085 809.255v 26.66h 15.5a 13.33 13.33, 0, 0, 0, 0 -26.66" transform="rotate(-90,728.5,822.585)"/><path d="M 714.085 838.085v 26.66h 15.5a 13.33 13.33, 0, 0, 0, 0 -26.66" transform="rotate(90,728.5,851.4150000000001)"/><circle cx="759.5" cy="356.5" r="13.33" transform="rotate(0,757.33,354.33)"/><path d="M 745.085 406.255v 26.66h 15.5a 13.33 13.33, 0, 0, 0, 0 -26.66" transform="rotate(-90,759.5,419.585)"/><path d="M 745.085 435.085v 26.66h 15.5a 13.33 13.33, 0, 0, 0, 0 -26.66" transform="rotate(90,759.5,448.41499999999996)"/><path d="M 745.085 561.255v 26.66h 15.5a 13.33 13.33, 0, 0, 0, 0 -26.66" transform="rotate(-90,759.5,574.585)"/><path d="M 745.085 590.085v 26.66h 15.5a 13.33 13.33, 0, 0, 0, 0 -26.66" transform="rotate(90,759.5,603.4150000000001)"/><path d="M 745.085 654.255v 26.66h 15.5a 13.33 13.33, 0, 0, 0, 0 -26.66" transform="rotate(-90,759.5,667.585)"/><path d="M 745.085 683.085v 26.66h 15.5a 13.33 13.33, 0, 0, 0, 0 -26.66" transform="rotate(90,759.5,696.4150000000001)"/><circle cx="759.5" cy="759.5" r="13.33" transform="rotate(0,757.33,757.33)"/><circle cx="759.5" cy="821.5" r="13.33" transform="rotate(0,757.33,819.33)"/><path d="M 745.085 871.255v 26.66h 15.5a 13.33 13.33, 0, 0, 0, 0 -26.66" transform="rotate(-90,759.5,884.585)"/><path d="M 745.085 900.085v 26.66h 15.5a 13.33 13.33, 0, 0, 0, 0 -26.66" transform="rotate(90,759.5,913.4150000000001)"/><circle cx="790.5" cy="325.5" r="13.33" transform="rotate(0,788.33,323.33)"/><circle cx="790.5" cy="418.5" r="13.33" transform="rotate(0,788.33,416.33)"/><circle cx="790.5" cy="542.5" r="13.33" transform="rotate(0,788.33,540.33)"/><circle cx="790.5" cy="635.5" r="13.33" transform="rotate(0,788.33,633.33)"/><circle cx="790.5" cy="697.5" r="13.33" transform="rotate(0,788.33,695.33)"/><circle cx="790.5" cy="821.5" r="13.33" transform="rotate(0,788.33,819.33)"/><circle cx="790.5" cy="914.5" r="13.33" transform="rotate(0,788.33,912.33)"/><path d="M 807.085 406.255v 26.66h 15.5a 13.33 13.33, 0, 0, 0, 0 -26.66" transform="rotate(-90,821.5,419.585)"/><rect x="808.17" y="434" width="26.66" height="31" transform="rotate(0,819.33,449.5)"/><path d="M 807.085 466.085v 26.66h 15.5a 13.33 13.33, 0, 0, 0, 0 -26.66" transform="rotate(90,821.5,479.41499999999996)"/><circle cx="821.5" cy="635.5" r="13.33" transform="rotate(0,819.33,633.33)"/><path d="M 807.085 685.255v 26.66h 15.5a 13.33 13.33, 0, 0, 0, 0 -26.66" transform="rotate(-90,821.5,698.585)"/><rect x="808.17" y="713" width="26.66" height="31" transform="rotate(0,819.33,728.5)"/><rect x="808.17" y="744" width="26.66" height="31" transform="rotate(0,819.33,759.5)"/><rect x="808.17" y="775" width="26.66" height="31" transform="rotate(0,819.33,790.5)"/><rect x="808.17" y="806" width="26.66" height="31" transform="rotate(0,819.33,821.5)"/><rect x="808.17" y="837" width="26.66" height="31" transform="rotate(0,819.33,852.5)"/><path d="M 807.085 869.085v 26.66h 15.5a 13.33 13.33, 0, 0, 0, 0 -26.66" transform="rotate(90,821.5,882.4150000000001)"/><circle cx="821.5" cy="945.5" r="13.33" transform="rotate(0,819.33,943.33)"/><circle cx="852.5" cy="325.5" r="13.33" transform="rotate(0,850.33,323.33)"/><path d="M 838.085 406.255v 26.66h 15.5a 13.33 13.33, 0, 0, 0, 0 -26.66" transform="rotate(-90,852.5,419.585)"/><rect x="839.17" y="434" width="26.66" height="31" transform="rotate(0,850.33,449.5)"/><path d="M 838.085 466.085v 26.66h 15.5a 13.33 13.33, 0, 0, 0, 0 -26.66" transform="rotate(90,852.5,479.41499999999996)"/><circle cx="852.5" cy="573.5" r="13.33" transform="rotate(0,850.33,571.33)"/><path d="M 838.085 623.255v 26.66h 15.5a 13.33 13.33, 0, 0, 0, 0 -26.66" transform="rotate(-90,852.5,636.585)"/><path d="M 838.085 652.085v 26.66h 15.5a 13.33 13.33, 0, 0, 0, 0 -26.66" transform="rotate(90,852.5,665.4150000000001)"/><circle cx="852.5" cy="821.5" r="13.33" transform="rotate(0,850.33,819.33)"/><path d="M 838.085 871.255v 26.66h 15.5a 13.33 13.33, 0, 0, 0, 0 -26.66" transform="rotate(-90,852.5,884.585)"/><path d="M 838.085 900.085v 26.66h 15.5a 13.33 13.33, 0, 0, 0, 0 -26.66" transform="rotate(90,852.5,913.4150000000001)"/><path d="M 869.085 313.255v 26.66h 15.5a 13.33 13.33, 0, 0, 0, 0 -26.66" transform="rotate(-90,883.5,326.585)"/><path d="M 869.085 342.085v 26.66h 15.5a 13.33 13.33, 0, 0, 0, 0 -26.66" transform="rotate(90,883.5,355.41499999999996)"/><circle cx="883.5" cy="418.5" r="13.33" transform="rotate(0,881.33,416.33)"/><path d="M 869.085 499.255v 26.66h 15.5a 13.33 13.33, 0, 0, 0, 0 -26.66" transform="rotate(-90,883.5,512.585)"/><rect x="870.17" y="527" width="26.66" height="31" transform="rotate(0,881.33,542.5)"/><path d="M 869.085 559.085v 26.66h 15.5a 13.33 13.33, 0, 0, 0, 0 -26.66" transform="rotate(90,883.5,572.4150000000001)"/><circle cx="883.5" cy="697.5" r="13.33" transform="rotate(0,881.33,695.33)"/><circle cx="883.5" cy="790.5" r="13.33" transform="rotate(0,881.33,788.33)"/><circle cx="883.5" cy="945.5" r="13.33" transform="rotate(0,881.33,943.33)"/><path d="M 900.085 313.255v 26.66h 15.5a 13.33 13.33, 0, 0, 0, 0 -26.66" transform="rotate(-90,914.5,326.585)"/><rect x="901.17" y="341" width="26.66" height="31" transform="rotate(0,912.33,356.5)"/><rect x="901.17" y="372" width="26.66" height="31" transform="rotate(0,912.33,387.5)"/><path d="M 900.085 404.085v 26.66h 15.5a 13.33 13.33, 0, 0, 0, 0 -26.66" transform="rotate(90,914.5,417.41499999999996)"/><circle cx="914.5" cy="511.5" r="13.33" transform="rotate(0,912.33,509.33)"/><circle cx="914.5" cy="573.5" r="13.33" transform="rotate(0,912.33,571.33)"/><circle cx="914.5" cy="697.5" r="13.33" transform="rotate(0,912.33,695.33)"/><circle cx="914.5" cy="821.5" r="13.33" transform="rotate(0,912.33,819.33)"/><circle cx="914.5" cy="914.5" r="13.33" transform="rotate(0,912.33,912.33)"/><circle cx="945.5" cy="356.5" r="13.33" transform="rotate(0,943.33,354.33)"/><path d="M 931.085 437.255v 26.66h 15.5a 13.33 13.33, 0, 0, 0, 0 -26.66" transform="rotate(-90,945.5,450.585)"/><rect x="932.17" y="465" width="26.66" height="31" transform="rotate(0,943.33,480.5)"/><rect x="932.17" y="496" width="26.66" height="31" transform="rotate(0,943.33,511.5)"/><path d="M 931.085 528.085v 26.66h 15.5a 13.33 13.33, 0, 0, 0, 0 -26.66" transform="rotate(90,945.5,541.4150000000001)"/><path d="M 931.085 623.255v 26.66h 15.5a 13.33 13.33, 0, 0, 0, 0 -26.66" transform="rotate(-90,945.5,636.585)"/><rect x="932.17" y="651" width="26.66" height="31" transform="rotate(0,943.33,666.5)"/><rect x="932.17" y="682" width="26.66" height="31" transform="rotate(0,943.33,697.5)"/><rect x="932.17" y="713" width="26.66" height="31" transform="rotate(0,943.33,728.5)"/><rect x="932.17" y="744" width="26.66" height="31" transform="rotate(0,943.33,759.5)"/><path d="M 931.085 776.085v 26.66h 15.5a 13.33 13.33, 0, 0, 0, 0 -26.66" transform="rotate(90,945.5,789.4150000000001)"/><circle cx="945.5" cy="852.5" r="13.33" transform="rotate(0,943.33,850.33)"/><circle cx="945.5" cy="914.5" r="13.33" transform="rotate(0,943.33,912.33)"/></clipPath><clipPath id="clip-path-corners-square-color-0-0"><path clip-rule="evenodd" d="M 62 139.5v 62a 77.5 77.5, 0, 0, 0, 77.5 77.5h 62a 77.5 77.5, 0, 0, 0, 77.5 -77.5v -62a 77.5 77.5, 0, 0, 0, -77.5 -77.5h -62a 77.5 77.5, 0, 0, 0, -77.5 77.5M 139.5 93h 62a 46.5 46.5, 0, 0, 1, 46.5 46.5v 62a 46.5 46.5, 0, 0, 1, -46.5 46.5h -62a 46.5 46.5, 0, 0, 1, -46.5 -46.5v -62a 46.5 46.5, 0, 0, 1, 46.5 -46.5" transform="rotate(0,170.5,170.5)"/></clipPath><clipPath id="clip-path-corners-dot-color-0-0"><path d="m 124 124 m 69.75 23.25 l 0 0 c 0 -12.821 -10.429 -23.25 -23.25 -23.25 h 0 c -12.821 0 -23.25 10.429 -23.25 23.25 v 0 h 0 c -12.821 0 -23.25 10.429 -23.25 23.25 v 0 c 0 12.821 10.429 23.25 23.25 23.25 h 0 v 0 c 0 12.821 10.429 23.25 23.25 23.25 h 0 c 12.821 0 23.25 -10.429 23.25 -23.25 v 0 h 0 c 12.821 0 23.25 -10.429 23.25 -23.25 v 0 c 0 -12.821 -10.429 -23.25 -23.25 -23.25 l 0 0 z"/></clipPath><clipPath id="clip-path-corners-square-color-1-0"><path clip-rule="evenodd" d="M 744 139.5v 62a 77.5 77.5, 0, 0, 0, 77.5 77.5h 62a 77.5 77.5, 0, 0, 0, 77.5 -77.5v -62a 77.5 77.5, 0, 0, 0, -77.5 -77.5h -62a 77.5 77.5, 0, 0, 0, -77.5 77.5M 821.5 93h 62a 46.5 46.5, 0, 0, 1, 46.5 46.5v 62a 46.5 46.5, 0, 0, 1, -46.5 46.5h -62a 46.5 46.5, 0, 0, 1, -46.5 -46.5v -62a 46.5 46.5, 0, 0, 1, 46.5 -46.5" transform="rotate(90,852.5,170.5)"/></clipPath><clipPath id="clip-path-corners-dot-color-1-0"><path d="m 806 124 m 69.75 23.25 l 0 0 c 0 -12.821 -10.429 -23.25 -23.25 -23.25 h 0 c -12.821 0 -23.25 10.429 -23.25 23.25 v 0 h 0 c -12.821 0 -23.25 10.429 -23.25 23.25 v 0 c 0 12.821 10.429 23.25 23.25 23.25 h 0 v 0 c 0 12.821 10.429 23.25 23.25 23.25 h 0 c 12.821 0 23.25 -10.429 23.25 -23.25 v 0 h 0 c 12.821 0 23.25 -10.429 23.25 -23.25 v 0 c 0 -12.821 -10.429 -23.25 -23.25 -23.25 l 0 0 z"/></clipPath><clipPath id="clip-path-corners-square-color-0-1"><path clip-rule="evenodd" d="M 62 821.5v 62a 77.5 77.5, 0, 0, 0, 77.5 77.5h 62a 77.5 77.5, 0, 0, 0, 77.5 -77.5v -62a 77.5 77.5, 0, 0, 0, -77.5 -77.5h -62a 77.5 77.5, 0, 0, 0, -77.5 77.5M 139.5 775h 62a 46.5 46.5, 0, 0, 1, 46.5 46.5v 62a 46.5 46.5, 0, 0, 1, -46.5 46.5h -62a 46.5 46.5, 0, 0, 1, -46.5 -46.5v -62a 46.5 46.5, 0, 0, 1, 46.5 -46.5" transform="rotate(-90,170.5,852.5)"/></clipPath><clipPath id="clip-path-corners-dot-color-0-1"><path d="m 124 806 m 69.75 23.25 l 0 0 c 0 -12.821 -10.429 -23.25 -23.25 -23.25 h 0 c -12.821 0 -23.25 10.429 -23.25 23.25 v 0 h 0 c -12.821 0 -23.25 10.429 -23.25 23.25 v 0 c 0 12.821 10.429 23.25 23.25 23.25 h 0 v 0 c 0 12.821 10.429 23.25 23.25 23.25 h 0 c 12.821 0 23.25 -10.429 23.25 -23.25 v 0 h 0 c 12.821 0 23.25 -10.429 23.25 -23.25 v 0 c 0 -12.821 -10.429 -23.25 -23.25 -23.25 l 0 0 z"/></clipPath></defs><rect x="0" y="0" height="1024" width="1024" clip-path="url('#clip-path-background-color')" fill="#ffffff"/><rect x="62" y="62" height="899" width="899" clip-path="url('#clip-path-dot-color')" fill="#d5cc9f"/><rect x="62" y="62" height="217" width="217" clip-path="url('#clip-path-corners-square-color-0-0')" fill="#d5cc9f"/><rect x="124" y="124" height="93" width="93" clip-path="url('#clip-path-corners-dot-color-0-0')" fill="#5e2c2c"/><rect x="744" y="62" height="217" width="217" clip-path="url('#clip-path-corners-square-color-1-0')" fill="#d5cc9f"/><rect x="806" y="124" height="93" width="93" clip-path="url('#clip-path-corners-dot-color-1-0')" fill="#5e2c2c"/><rect x="62" y="744" height="217" width="217" clip-path="url('#clip-path-corners-square-color-0-1')" fill="#d5cc9f"/><rect x="124" y="806" height="93" width="93" clip-path="url('#clip-path-corners-dot-color-0-1')" fill="#5e2c2c"/><image href="https://img.qrfy.com/img/large/f0e4d2ac-441a-46f4-87bc-fb13f5b11802.webp" x="372" y="372" width="279px" height="279px"/></svg>